<mxfile host="app.diagrams.net" agent="Mozilla/5.0 (Windows NT 10.0; Win64; x64) AppleWebKit/537.36 (KHTML, like Gecko) Chrome/132.0.0.0 Safari/537.36" version="26.0.6">
  <diagram name="Страница — 1" id="0Q6NYXsj1kNqVqcXmgJc">
    <mxGraphModel dx="1528" dy="620" grid="1" gridSize="10" guides="1" tooltips="1" connect="1" arrows="1" fold="1" page="0" pageScale="1" pageWidth="827" pageHeight="1169" math="0" shadow="0">
      <root>
        <mxCell id="0" />
        <mxCell id="1" parent="0" />
        <mxCell id="e5ski85UAcxZjVhwJ59c-1" value="" style="endArrow=classic;html=1;rounded=0;" parent="1" edge="1">
          <mxGeometry width="50" height="50" relative="1" as="geometry">
            <mxPoint x="440" y="928.8887939453125" as="sourcePoint" />
            <mxPoint x="440" y="120" as="targetPoint" />
          </mxGeometry>
        </mxCell>
        <mxCell id="e5ski85UAcxZjVhwJ59c-2" value="" style="endArrow=classic;html=1;rounded=0;" parent="1" edge="1">
          <mxGeometry width="50" height="50" relative="1" as="geometry">
            <mxPoint x="-80" y="520" as="sourcePoint" />
            <mxPoint x="1400" y="520" as="targetPoint" />
          </mxGeometry>
        </mxCell>
        <mxCell id="e5ski85UAcxZjVhwJ59c-3" value="&lt;b&gt;&lt;font style=&quot;font-size: 18px;&quot;&gt;Im&lt;/font&gt;&lt;/b&gt;" style="text;html=1;align=center;verticalAlign=middle;whiteSpace=wrap;rounded=0;" parent="1" vertex="1">
          <mxGeometry x="370" y="120" width="60" height="30" as="geometry" />
        </mxCell>
        <mxCell id="e5ski85UAcxZjVhwJ59c-4" value="&lt;b&gt;&lt;font style=&quot;font-size: 18px;&quot;&gt;Re&lt;/font&gt;&lt;/b&gt;" style="text;html=1;align=center;verticalAlign=middle;whiteSpace=wrap;rounded=0;" parent="1" vertex="1">
          <mxGeometry x="1360" y="490" width="60" height="30" as="geometry" />
        </mxCell>
        <mxCell id="e5ski85UAcxZjVhwJ59c-5" value="0" style="text;html=1;align=center;verticalAlign=middle;whiteSpace=wrap;rounded=0;" parent="1" vertex="1">
          <mxGeometry x="420" y="530" width="60" height="30" as="geometry" />
        </mxCell>
        <mxCell id="YE9Tz9SZSmVJyGqRC9uq-1" value="" style="endArrow=classic;html=1;rounded=0;" edge="1" parent="1">
          <mxGeometry width="50" height="50" relative="1" as="geometry">
            <mxPoint x="440" y="520" as="sourcePoint" />
            <mxPoint x="390" y="400" as="targetPoint" />
          </mxGeometry>
        </mxCell>
        <mxCell id="YE9Tz9SZSmVJyGqRC9uq-2" value="0,6" style="text;html=1;align=center;verticalAlign=middle;whiteSpace=wrap;rounded=0;" vertex="1" parent="1">
          <mxGeometry x="370" y="520" width="60" height="30" as="geometry" />
        </mxCell>
        <mxCell id="YE9Tz9SZSmVJyGqRC9uq-4" value="1,009" style="text;html=1;align=center;verticalAlign=middle;whiteSpace=wrap;rounded=0;" vertex="1" parent="1">
          <mxGeometry x="1210" y="530" width="60" height="30" as="geometry" />
        </mxCell>
        <mxCell id="YE9Tz9SZSmVJyGqRC9uq-5" value="0,302" style="text;html=1;align=center;verticalAlign=middle;whiteSpace=wrap;rounded=0;" vertex="1" parent="1">
          <mxGeometry x="380" y="310" width="60" height="30" as="geometry" />
        </mxCell>
        <mxCell id="YE9Tz9SZSmVJyGqRC9uq-6" value="" style="endArrow=classic;html=1;rounded=0;" edge="1" parent="1">
          <mxGeometry width="50" height="50" relative="1" as="geometry">
            <mxPoint x="440" y="520" as="sourcePoint" />
            <mxPoint x="1240" y="320" as="targetPoint" />
          </mxGeometry>
        </mxCell>
        <mxCell id="YE9Tz9SZSmVJyGqRC9uq-7" value="0,504" style="text;html=1;align=center;verticalAlign=middle;whiteSpace=wrap;rounded=0;" vertex="1" parent="1">
          <mxGeometry x="380" y="150" width="60" height="30" as="geometry" />
        </mxCell>
        <mxCell id="YE9Tz9SZSmVJyGqRC9uq-8" value="0,949" style="text;html=1;align=center;verticalAlign=middle;whiteSpace=wrap;rounded=0;" vertex="1" parent="1">
          <mxGeometry x="1160" y="530" width="60" height="30" as="geometry" />
        </mxCell>
        <mxCell id="YE9Tz9SZSmVJyGqRC9uq-9" value="" style="endArrow=classic;html=1;rounded=0;" edge="1" parent="1">
          <mxGeometry width="50" height="50" relative="1" as="geometry">
            <mxPoint x="440" y="520" as="sourcePoint" />
            <mxPoint x="1200" y="157.0369873046875" as="targetPoint" />
          </mxGeometry>
        </mxCell>
        <mxCell id="YE9Tz9SZSmVJyGqRC9uq-10" value="" style="html=1;labelBackgroundColor=#ffffff;startArrow=none;startFill=0;startSize=6;endArrow=classic;endFill=1;endSize=6;jettySize=auto;orthogonalLoop=1;strokeWidth=1;dashed=1;fontSize=14;rounded=0;" edge="1" parent="1">
          <mxGeometry width="60" height="60" relative="1" as="geometry">
            <mxPoint x="1240" y="320" as="sourcePoint" />
            <mxPoint x="1200" y="160" as="targetPoint" />
          </mxGeometry>
        </mxCell>
        <mxCell id="YE9Tz9SZSmVJyGqRC9uq-11" value="" style="html=1;labelBackgroundColor=#ffffff;startArrow=none;startFill=0;startSize=6;endArrow=classic;endFill=1;endSize=6;jettySize=auto;orthogonalLoop=1;strokeWidth=1;dashed=1;fontSize=14;rounded=0;" edge="1" parent="1">
          <mxGeometry width="60" height="60" relative="1" as="geometry">
            <mxPoint x="390" y="400" as="sourcePoint" />
            <mxPoint x="1190" y="160" as="targetPoint" />
          </mxGeometry>
        </mxCell>
        <mxCell id="YE9Tz9SZSmVJyGqRC9uq-12" value="I_m1" style="text;html=1;align=center;verticalAlign=middle;whiteSpace=wrap;rounded=0;" vertex="1" parent="1">
          <mxGeometry x="830" y="330" width="60" height="30" as="geometry" />
        </mxCell>
        <mxCell id="YE9Tz9SZSmVJyGqRC9uq-13" value="I_m2" style="text;html=1;align=center;verticalAlign=middle;whiteSpace=wrap;rounded=0;" vertex="1" parent="1">
          <mxGeometry x="1220" y="330" width="60" height="30" as="geometry" />
        </mxCell>
        <mxCell id="YE9Tz9SZSmVJyGqRC9uq-14" value="I_m3" style="text;html=1;align=center;verticalAlign=middle;whiteSpace=wrap;rounded=0;" vertex="1" parent="1">
          <mxGeometry x="340" y="400" width="60" height="30" as="geometry" />
        </mxCell>
        <mxCell id="YE9Tz9SZSmVJyGqRC9uq-15" value="" style="endArrow=classic;html=1;rounded=0;" edge="1" parent="1">
          <mxGeometry width="50" height="50" relative="1" as="geometry">
            <mxPoint x="437.78" y="1858.8887939453125" as="sourcePoint" />
            <mxPoint x="437.78" y="1050" as="targetPoint" />
          </mxGeometry>
        </mxCell>
        <mxCell id="YE9Tz9SZSmVJyGqRC9uq-16" value="" style="endArrow=classic;html=1;rounded=0;" edge="1" parent="1">
          <mxGeometry width="50" height="50" relative="1" as="geometry">
            <mxPoint x="-260" y="1480" as="sourcePoint" />
            <mxPoint x="1220" y="1480" as="targetPoint" />
          </mxGeometry>
        </mxCell>
        <mxCell id="YE9Tz9SZSmVJyGqRC9uq-17" value="&lt;b&gt;&lt;font style=&quot;font-size: 18px;&quot;&gt;Re&lt;/font&gt;&lt;/b&gt;" style="text;html=1;align=center;verticalAlign=middle;whiteSpace=wrap;rounded=0;" vertex="1" parent="1">
          <mxGeometry x="1180" y="1440" width="60" height="30" as="geometry" />
        </mxCell>
        <mxCell id="YE9Tz9SZSmVJyGqRC9uq-19" value="&lt;b&gt;&lt;font style=&quot;font-size: 18px;&quot;&gt;Im&lt;/font&gt;&lt;/b&gt;" style="text;html=1;align=center;verticalAlign=middle;whiteSpace=wrap;rounded=0;" vertex="1" parent="1">
          <mxGeometry x="370" y="1040" width="60" height="30" as="geometry" />
        </mxCell>
        <mxCell id="YE9Tz9SZSmVJyGqRC9uq-22" value="0" style="text;html=1;align=center;verticalAlign=middle;whiteSpace=wrap;rounded=0;" vertex="1" parent="1">
          <mxGeometry x="440" y="1490" width="30" height="10" as="geometry" />
        </mxCell>
        <mxCell id="YE9Tz9SZSmVJyGqRC9uq-23" value="" style="endArrow=classic;html=1;rounded=0;" edge="1" parent="1">
          <mxGeometry width="50" height="50" relative="1" as="geometry">
            <mxPoint x="438" y="1480" as="sourcePoint" />
            <mxPoint x="440" y="1160" as="targetPoint" />
          </mxGeometry>
        </mxCell>
        <mxCell id="YE9Tz9SZSmVJyGqRC9uq-24" value="E_m" style="text;html=1;align=center;verticalAlign=middle;whiteSpace=wrap;rounded=0;" vertex="1" parent="1">
          <mxGeometry x="430" y="1290" width="60" height="30" as="geometry" />
        </mxCell>
        <mxCell id="YE9Tz9SZSmVJyGqRC9uq-25" value="4,036" style="text;html=1;align=center;verticalAlign=middle;whiteSpace=wrap;rounded=0;" vertex="1" parent="1">
          <mxGeometry x="590" y="1490" width="40" height="20" as="geometry" />
        </mxCell>
        <mxCell id="YE9Tz9SZSmVJyGqRC9uq-26" value="1,208" style="text;html=1;align=center;verticalAlign=middle;whiteSpace=wrap;rounded=0;" vertex="1" parent="1">
          <mxGeometry x="440" y="1430" width="30" as="geometry" />
        </mxCell>
        <mxCell id="YE9Tz9SZSmVJyGqRC9uq-27" value="" style="endArrow=classic;html=1;rounded=0;" edge="1" parent="1">
          <mxGeometry width="50" height="50" relative="1" as="geometry">
            <mxPoint x="440" y="1480" as="sourcePoint" />
            <mxPoint x="600" y="1430" as="targetPoint" />
          </mxGeometry>
        </mxCell>
        <mxCell id="YE9Tz9SZSmVJyGqRC9uq-28" value="-4,032" style="text;html=1;align=center;verticalAlign=middle;whiteSpace=wrap;rounded=0;" vertex="1" parent="1">
          <mxGeometry x="250" y="1490" width="60" height="30" as="geometry" />
        </mxCell>
        <mxCell id="YE9Tz9SZSmVJyGqRC9uq-29" value="7,592" style="text;html=1;align=center;verticalAlign=middle;whiteSpace=wrap;rounded=0;" vertex="1" parent="1">
          <mxGeometry x="430" y="1190" width="60" height="30" as="geometry" />
        </mxCell>
        <mxCell id="YE9Tz9SZSmVJyGqRC9uq-30" value="8,797" style="text;html=1;align=center;verticalAlign=middle;whiteSpace=wrap;rounded=0;" vertex="1" parent="1">
          <mxGeometry x="440" y="1140" width="60" height="30" as="geometry" />
        </mxCell>
        <mxCell id="YE9Tz9SZSmVJyGqRC9uq-31" value="" style="endArrow=classic;html=1;rounded=0;" edge="1" parent="1">
          <mxGeometry width="50" height="50" relative="1" as="geometry">
            <mxPoint x="440" y="1480" as="sourcePoint" />
            <mxPoint x="280" y="1200" as="targetPoint" />
          </mxGeometry>
        </mxCell>
        <mxCell id="YE9Tz9SZSmVJyGqRC9uq-32" value="" style="html=1;labelBackgroundColor=#ffffff;startArrow=none;startFill=0;startSize=6;endArrow=classic;endFill=1;endSize=6;jettySize=auto;orthogonalLoop=1;strokeWidth=1;dashed=1;fontSize=14;rounded=0;entryX=0;entryY=0.75;entryDx=0;entryDy=0;" edge="1" parent="1" target="YE9Tz9SZSmVJyGqRC9uq-30">
          <mxGeometry width="60" height="60" relative="1" as="geometry">
            <mxPoint x="280" y="1200" as="sourcePoint" />
            <mxPoint x="680" y="1360" as="targetPoint" />
          </mxGeometry>
        </mxCell>
        <mxCell id="YE9Tz9SZSmVJyGqRC9uq-33" value="" style="html=1;labelBackgroundColor=#ffffff;startArrow=none;startFill=0;startSize=6;endArrow=classic;endFill=1;endSize=6;jettySize=auto;orthogonalLoop=1;strokeWidth=1;dashed=1;fontSize=14;rounded=0;entryX=0;entryY=0.75;entryDx=0;entryDy=0;" edge="1" parent="1" target="YE9Tz9SZSmVJyGqRC9uq-30">
          <mxGeometry width="60" height="60" relative="1" as="geometry">
            <mxPoint x="600" y="1430" as="sourcePoint" />
            <mxPoint x="680" y="1360" as="targetPoint" />
          </mxGeometry>
        </mxCell>
        <mxCell id="YE9Tz9SZSmVJyGqRC9uq-34" value="U_m1" style="text;html=1;align=center;verticalAlign=middle;whiteSpace=wrap;rounded=0;" vertex="1" parent="1">
          <mxGeometry x="480" y="1420" width="60" height="30" as="geometry" />
        </mxCell>
        <mxCell id="YE9Tz9SZSmVJyGqRC9uq-35" value="U_m3" style="text;html=1;align=center;verticalAlign=middle;whiteSpace=wrap;rounded=0;" vertex="1" parent="1">
          <mxGeometry x="320" y="1350" width="60" height="30" as="geometry" />
        </mxCell>
      </root>
    </mxGraphModel>
  </diagram>
</mxfile>
